<svg width="12" height="12" viewBox="0 0 12 12" fill="none" xmlns="http://www.w3.org/2000/svg">
<g clip-path="url(#clip0_1990_3909)">
<path d="M6.3293 9.10363L11.8643 3.55327C12.0455 3.37142 12.0452 3.077 11.8634 2.89545C11.6815 2.71405 11.3869 2.71452 11.2055 2.89639L5.99998 8.11637L0.794437 2.8962C0.613032 2.71435 0.318634 2.71388 0.13676 2.89527C0.0455885 2.98627 2.8459e-06 3.1055 2.84069e-06 3.22472C2.83549e-06 3.34365 0.0452833 3.4624 0.135822 3.55325L5.67068 9.10363C5.75782 9.19121 5.87642 9.24036 5.99998 9.24036C6.12354 9.24036 6.24199 9.19107 6.3293 9.10363Z" fill="#4A4A4A"/>
</g>
<defs>
<clipPath id="clip0_1990_3909">
<rect width="12" height="12" fill="white" transform="translate(12) rotate(90)"/>
</clipPath>
</defs>
</svg>
