<svg width="37" height="50" viewBox="0 0 37 50" fill="none" xmlns="http://www.w3.org/2000/svg">
<path d="M2.3125 49.3333H34.6875C35.9625 49.3333 37 48.2958 37 47.0208V14.6458C37 14.6196 36.9877 14.598 36.9861 14.5734C36.983 14.5379 36.9738 14.5071 36.9661 14.4732C36.9419 14.3661 36.8945 14.2656 36.8273 14.1787C36.8165 14.1648 36.8181 14.1479 36.8073 14.134L24.474 0.259C24.4693 0.254375 24.4632 0.254375 24.4585 0.24975C24.3645 0.151408 24.2457 0.0800726 24.1147 0.0431667C24.0855 0.0339167 24.0593 0.0308333 24.0284 0.0262083C23.9837 0.0185 23.9421 0 23.8958 0H2.3125C1.03754 0 0 1.03754 0 2.3125V47.0208C0 48.2958 1.03754 49.3333 2.3125 49.3333ZM24.6667 2.79813L34.5133 13.875H25.4375C25.0983 13.875 24.6667 13.2275 24.6667 12.7188V2.79813ZM1.54167 2.3125C1.54167 2.10806 1.62288 1.912 1.76744 1.76744C1.912 1.62288 2.10806 1.54167 2.3125 1.54167H23.125V12.7188C23.125 13.966 24.1348 15.4167 25.4375 15.4167H35.4583V47.0208C35.4583 47.2253 35.3771 47.4213 35.2326 47.5659C35.088 47.7105 34.8919 47.7917 34.6875 47.7917H2.3125C1.88083 47.7917 1.54167 47.4525 1.54167 47.0208V2.3125Z" fill="#D0021B"/>
<path d="M8.47933 21.5834H28.521C28.7254 21.5834 28.9215 21.5022 29.0661 21.3576C29.2106 21.2131 29.2918 21.017 29.2918 20.8126C29.2918 20.6081 29.2106 20.4121 29.0661 20.2675C28.9215 20.123 28.7254 20.0417 28.521 20.0417H8.47933C8.27489 20.0417 8.07883 20.123 7.93427 20.2675C7.78971 20.4121 7.7085 20.6081 7.7085 20.8126C7.7085 21.017 7.78971 21.2131 7.93427 21.3576C8.07883 21.5022 8.27489 21.5834 8.47933 21.5834V21.5834Z" fill="#D0021B"/>
<path d="M8.47933 27.7499H28.521C28.7254 27.7499 28.9215 27.6687 29.0661 27.5241C29.2106 27.3796 29.2918 27.1835 29.2918 26.9791C29.2918 26.7746 29.2106 26.5786 29.0661 26.434C28.9215 26.2895 28.7254 26.2083 28.521 26.2083H8.47933C8.27489 26.2083 8.07883 26.2895 7.93427 26.434C7.78971 26.5786 7.7085 26.7746 7.7085 26.9791C7.7085 27.1835 7.78971 27.3796 7.93427 27.5241C8.07883 27.6687 8.27489 27.7499 8.47933 27.7499V27.7499Z" fill="#D0021B"/>
<path d="M8.47933 15.4167H17.7293C17.9338 15.4167 18.1298 15.3355 18.2744 15.1909C18.419 15.0463 18.5002 14.8503 18.5002 14.6458C18.5002 14.4414 18.419 14.2453 18.2744 14.1008C18.1298 13.9562 17.9338 13.875 17.7293 13.875H8.47933C8.27489 13.875 8.07883 13.9562 7.93427 14.1008C7.78971 14.2453 7.7085 14.4414 7.7085 14.6458C7.7085 14.8503 7.78971 15.0463 7.93427 15.1909C8.07883 15.3355 8.27489 15.4167 8.47933 15.4167V15.4167Z" fill="#D0021B"/>
<path d="M8.47933 33.9167H28.521C28.7254 33.9167 28.9215 33.8355 29.0661 33.6909C29.2106 33.5463 29.2918 33.3503 29.2918 33.1458C29.2918 32.9414 29.2106 32.7453 29.0661 32.6008C28.9215 32.4562 28.7254 32.375 28.521 32.375H8.47933C8.27489 32.375 8.07883 32.4562 7.93427 32.6008C7.78971 32.7453 7.7085 32.9414 7.7085 33.1458C7.7085 33.3503 7.78971 33.5463 7.93427 33.6909C8.07883 33.8355 8.27489 33.9167 8.47933 33.9167V33.9167Z" fill="#D0021B"/>
<path d="M8.47933 40.0834H28.521C28.7254 40.0834 28.9215 40.0022 29.0661 39.8576C29.2106 39.7131 29.2918 39.517 29.2918 39.3126C29.2918 39.1081 29.2106 38.9121 29.0661 38.7675C28.9215 38.623 28.7254 38.5417 28.521 38.5417H8.47933C8.27489 38.5417 8.07883 38.623 7.93427 38.7675C7.78971 38.9121 7.7085 39.1081 7.7085 39.3126C7.7085 39.517 7.78971 39.7131 7.93427 39.8576C8.07883 40.0022 8.27489 40.0834 8.47933 40.0834V40.0834Z" fill="#D0021B"/>
</svg>
