<svg width="57" height="71" viewBox="0 0 57 71" fill="none" xmlns="http://www.w3.org/2000/svg">
<path d="M57 25.3603H51.8237V22.8198C51.7933 10.2214 41.3648 0.0148567 28.4924 0C15.62 0.0148567 5.19148 10.2214 5.1763 22.8198V25.3603H0V71H57V25.3603ZM10.3678 22.8198C10.3678 9.83511 24.6064 0.118854 38.6325 7.78489C43.5963 10.5037 46.6322 15.6441 46.6322 21.2005V25.3455H10.3678V22.8198ZM51.8085 65.919H5.1763V30.4265H51.8085V65.919Z" fill="black"/>
<path d="M35.8245 43.0989C34.7316 40.0533 31.7867 38.0179 28.4927 38.0328C24.212 38.0179 20.7359 41.4201 20.7207 45.6097C20.7207 48.8336 22.7851 51.7158 25.897 52.7855V58.327C25.897 59.7235 27.0507 60.8675 28.4927 60.8675C29.9348 60.8675 31.0885 59.7384 31.0885 58.327V52.7855C35.1263 51.3889 37.2514 47.0508 35.8245 43.0989ZM28.4927 48.1799C27.0658 48.1799 25.897 47.0508 25.897 45.6394C25.897 44.228 27.0507 43.0989 28.4927 43.0989C29.9348 43.0989 31.0885 44.228 31.0885 45.6394C31.0885 47.0508 29.9348 48.1799 28.4927 48.1799Z" fill="black"/>
</svg>
